<svg width="14" height="14" viewBox="0 0 14 14" fill="none" xmlns="http://www.w3.org/2000/svg">
<path d="M12.2635 1.60399C12.2635 0.231966 10.9541 0.294346 10.9541 0.294346L2.72353 0.294346C1.10235 0.231981 1.10235 1.60399 1.10235 1.60399C0.790581 1.66635 0.354112 1.91582 0.354112 2.60183C0.354112 3.66203 0.354112 11.8318 0.354112 11.8318C0.354112 11.8318 0.229404 13.4533 2.03764 13.4533L11.64 13.4533C11.64 13.4533 12.9494 13.578 12.9494 11.8318L12.9494 2.60183C12.9494 2.60183 12.9494 1.79108 12.2635 1.60399Z" fill="#FFCC00"/>
<path d="M1.22706 1.60399H0.915298C0.915298 1.60399 0.915291 0.980353 1.41411 0.5438C1.72588 0.231976 2.16235 0.107239 2.72353 0.107239L10.9541 0.107239C10.9541 0.107239 11.5777 0.107243 12.0141 0.481431C12.2635 0.73089 12.3882 1.10509 12.3882 1.54164H12.0765C12.0765 1.16745 11.9518 0.917977 11.7647 0.668518C11.453 0.356694 10.9541 0.356694 10.8918 0.356694L2.66117 0.356694C2.16235 0.356694 1.78824 0.419059 1.53883 0.668518C1.22706 1.10507 1.22706 1.60399 1.22706 1.60399Z" fill="#E2A62A"/>
<path d="M11.7023 13.578C11.64 13.578 11.64 13.578 11.5776 13.578L1.9753 13.578C1.35177 13.578 0.915302 13.3909 0.603537 13.0791C0.104714 12.5802 0.167059 11.8942 0.167059 11.8318L0.167059 2.60182C0.167059 2.22763 0.291765 1.97818 0.478824 1.72872C0.852941 1.35453 1.35176 1.41689 1.41412 1.41689C1.85059 1.41689 2.16235 1.54163 2.34941 1.79108C2.66117 2.10291 2.59883 2.53945 2.59883 2.53945L2.59883 10.5845L10.58 10.5845L10.58 2.72656C10.58 2.29 10.7047 1.97818 10.9541 1.72872C11.3282 1.35453 11.8894 1.41689 11.9518 1.41689C12.2635 1.41689 12.5753 1.54162 12.7623 1.72872C13.1365 2.10291 13.1365 2.60182 13.1365 2.66419L13.1365 11.8942C13.1365 12.5178 12.9494 13.0168 12.5753 13.3286C12.2635 13.578 11.8894 13.578 11.7023 13.578ZM1.41412 1.72872C1.35176 1.72872 0.977652 1.72871 0.728241 1.97817C0.603535 2.1029 0.478824 2.35236 0.478824 2.60182L0.478824 11.8318C0.478824 11.8318 0.416475 12.4555 0.852945 12.8296C1.10236 13.0791 1.47647 13.2662 2.03765 13.2662L11.64 13.2662C11.64 13.2662 12.0765 13.3286 12.3882 13.0168C12.6376 12.7673 12.8247 12.3931 12.8247 11.8318L12.8247 2.60182C12.8247 2.60182 12.8247 2.16526 12.5753 1.9158C12.4506 1.79107 12.2012 1.72872 11.9518 1.72872C11.9518 1.72872 11.5153 1.66635 11.2035 1.97817C11.0165 2.16527 10.9541 2.41473 10.9541 2.72656L10.9541 10.9587L2.34941 10.9587L2.34941 2.60182C2.34941 2.60182 2.34942 2.29 2.16236 2.04054C2.03765 1.85345 1.78823 1.72872 1.41412 1.72872Z" fill="#E2A62A"/>
<path d="M6.4647 3.84914C7.08823 3.84914 7.5247 4.03624 7.83646 4.34806C8.14822 4.72225 8.33528 5.22117 8.33528 5.84481C8.33528 6.46846 8.14822 6.96737 7.83646 7.34156C7.5247 7.71575 7.02588 7.84047 6.4647 7.84047H5.03059L5.03059 3.84914L6.4647 3.84914ZM5.65412 7.27919H6.40235C6.83882 7.27919 7.15058 7.15446 7.39999 6.905C7.6494 6.65554 7.77411 6.28136 7.77411 5.84481C7.77411 5.40826 7.6494 5.03406 7.39999 4.78461C7.15058 4.53515 6.83882 4.41041 6.40235 4.41041H5.65412L5.65412 7.27919Z" fill="white"/>
</svg>
