<svg width="114" height="119" viewBox="0 0 114 119" fill="none" xmlns="http://www.w3.org/2000/svg">
<path fill-rule="evenodd" clip-rule="evenodd" d="M103.579 38.2086C103.579 37.8968 103.329 37.6473 103.018 37.6473L11.7329 37.6473C11.4212 37.6473 11.1718 37.8968 11.1718 38.2086V38.957C24.8271 99.3261 40.2282 118.909 57.3129 118.909C74.46 118.909 89.8612 99.2638 103.516 38.7075V38.2086H103.579Z" fill="#2DB4D0"/>
<path d="M47.4612 0.103821C47.7729 0.103821 48.0224 0.353218 48.0224 0.665041V16.9423C48.0224 17.2541 47.7729 17.5035 47.4612 17.5035L9.11411 17.5035C8.80235 17.5035 8.55294 17.2541 8.55294 16.9423L8.42824 0.665041C8.42824 0.353218 8.67765 0.103821 8.98941 0.103821L47.4612 0.103821Z" fill="#2DB4D0"/>
<path d="M23.2851 5.08825L21.4736 10.0701L24.4621 11.1572L26.2737 6.17536L23.2851 5.08825Z" fill="white"/>
<path d="M26.2612 9.33356H22.9565V15.0713H26.2612V9.33356Z" fill="white"/>
<path d="M27.2588 9.33356H23.9541V15.0713H27.2588V9.33356Z" fill="white"/>
<path d="M27.5082 5.46704L22.7071 5.46704V10.3314H27.5082V5.46704Z" fill="white"/>
<path d="M27.7577 7.33801L22.4576 7.33801V12.2025H27.7577V7.33801Z" fill="white"/>
<path d="M27.3212 3.65845L23.1435 3.65845V7.83698L27.3212 7.83698V3.65845Z" fill="white"/>
<path d="M32.3094 7.89929L29.0047 7.89929V15.0713H32.3094V7.89929Z" fill="white"/>
<path d="M33.3071 7.89929L30.0024 7.89929V15.0713H33.3071V7.89929Z" fill="white"/>
<path d="M33.0275 5.08393L30.039 6.17075L31.85 11.1527L34.8385 10.0658L33.0275 5.08393Z" fill="white"/>
<path d="M33.5565 5.46704L28.6929 5.46704V11.5164H33.5565V5.46704Z" fill="white"/>
<path d="M33.3071 3.65845L29.1294 3.65845V7.83698L33.3071 7.83698V3.65845Z" fill="white"/>
<path d="M29.6906 3.65845L26.6977 3.65845L26.6977 15.2582H29.6906V3.65845Z" fill="white"/>
<path d="M67.7259 0.103821L105.699 0.103821C106.011 0.103821 106.26 0.353218 106.26 0.665041L106.135 16.9423C106.135 17.2541 105.886 17.5035 105.574 17.5035L67.7259 17.5035C67.4141 17.5035 67.1647 17.2541 67.1647 16.9423V0.665041C67.1647 0.353218 67.4141 0.103821 67.7259 0.103821Z" fill="#2DB4D0"/>
<path d="M81.8344 5.09943L80.0229 10.0813L83.0114 11.1685L84.823 6.18655L81.8344 5.09943Z" fill="white"/>
<path d="M84.8729 9.33356H81.5682V15.0713H84.8729V9.33356Z" fill="white"/>
<path d="M85.8706 9.33356H82.5659V15.0713H85.8706V9.33356Z" fill="white"/>
<path d="M86.0576 5.46704L81.2565 5.46704V10.3314H86.0576V5.46704Z" fill="white"/>
<path d="M86.3694 7.33801L81.0694 7.33801V12.2025H86.3694V7.33801Z" fill="white"/>
<path d="M85.8706 3.65845L81.6929 3.65845V7.83698L85.8706 7.83698V3.65845Z" fill="white"/>
<path d="M90.8588 7.89929L87.5541 7.89929V15.0713H90.8588V7.89929Z" fill="white"/>
<path d="M91.8565 7.89929L88.5517 7.89929V15.0713H91.8565V7.89929Z" fill="white"/>
<path d="M91.5773 5.08698L88.5887 6.17377L90.3997 11.1556L93.3883 10.0688L91.5773 5.08698Z" fill="white"/>
<path d="M92.1059 5.46704L87.2424 5.46704V11.5164H92.1059V5.46704Z" fill="white"/>
<path d="M91.8565 3.65845L87.6788 3.65845V7.83698L91.8565 7.83698V3.65845Z" fill="white"/>
<path d="M88.24 3.65845L85.2471 3.65845V15.2582H88.24V3.65845Z" fill="white"/>
<path fill-rule="evenodd" clip-rule="evenodd" d="M61.0541 74.4426C61.74 74.4426 62.3012 73.8813 62.3012 73.1953C62.3012 72.5093 61.74 71.948 61.0541 71.948C60.8671 71.948 60.7424 72.0104 60.6176 72.0104C60.5553 71.6986 60.5553 71.3867 60.4929 71.0749C60.4929 70.9502 60.3682 70.8879 60.3059 70.8879H55.2553C55.1306 70.8879 55.0682 70.9502 55.0682 71.0749C54.8812 71.8857 54.8188 72.6341 54.8812 73.3824C54.9435 74.0685 55.1929 74.6297 55.567 75.1286C54.507 75.191 53.8212 75.3157 53.8212 75.4404C53.8212 75.6899 55.567 75.877 57.7494 75.877C59.9318 75.877 61.6776 75.6899 61.6776 75.4404C61.6776 75.3157 60.9918 75.191 59.9318 75.0662C60.1812 74.7544 60.3059 74.505 60.4306 74.1931C60.6176 74.3802 60.8047 74.4426 61.0541 74.4426ZM61.0541 72.3846C61.4906 72.3846 61.8647 72.7588 61.8647 73.1953C61.8647 73.6319 61.4906 74.0061 61.0541 74.0061C60.8671 74.0061 60.68 73.9437 60.5553 73.819C60.6176 73.6942 60.6176 73.5072 60.6176 73.3824C60.6176 73.0706 60.6176 72.7588 60.6176 72.447C60.7424 72.3846 60.8671 72.3846 61.0541 72.3846Z" fill="white"/>
<path d="M113.368 21.869H103.329V33.2194H113.368V21.869Z" fill="#BDBDBD"/>
<path d="M107.881 21.869H97.8424V33.2194H107.881V21.869Z" fill="#BDBDBD"/>
<path d="M10.9847 21.869H0.945885L0.945885 33.2193H10.9847L10.9847 21.869Z" fill="#BDBDBD"/>
<path d="M16.5341 21.869H6.49529L6.49529 33.2194H16.5341V21.869Z" fill="#BDBDBD"/>
<path d="M6.49647 28.2457H5V26.0629H6.49647V26.4995H5.56118V26.9361H6.43411V27.3726H5.56118V27.8092H6.49647V28.2457Z" fill="#333333"/>
<path d="M7.99294 27.1226L7.30706 26H7.99294L8.36706 26.7483L8.74117 26H9.3647L8.67882 27.1226L9.3647 28.2451H8.74117L8.3047 27.5591L7.86823 28.2451H7.24471L7.99294 27.1226Z" fill="#333333"/>
<path d="M10.3 28.2451V26.0624H10.8612V28.2451H10.3Z" fill="#333333"/>
<path d="M12.3576 28.2451V26.499H11.7341V26.0624H13.5424V26.499H12.9188V28.2451H12.3576Z" fill="#333333"/>
<path d="M103.496 28.2457H102V26.0629H103.496V26.4995H102.561V26.9361H103.434V27.3726H102.561V27.8092H103.496V28.2457Z" fill="#333333"/>
<path d="M105.055 27.1226L104.369 26H105.055L105.429 26.7483L105.804 26H106.427L105.741 27.1226L106.427 28.2451H105.804L105.367 27.5591L104.931 28.2451H104.307L105.055 27.1226Z" fill="#333333"/>
<path d="M107.3 28.2451V26.0624H107.861V28.2451H107.3Z" fill="#333333"/>
<path d="M109.358 28.2451V26.499H108.734V26.0624H110.542V26.499H109.919V28.2451H109.358Z" fill="#333333"/>
</svg>
