<svg width="14" height="14" viewBox="0 0 14 14" fill="none" xmlns="http://www.w3.org/2000/svg">
<path d="M12.4918 2.01493C12.4918 0.642903 11.1824 0.705265 11.1824 0.705265L2.95177 0.705265C1.33059 0.6429 1.33059 2.01493 1.33059 2.01493C1.01882 2.0773 0.582353 2.32674 0.582353 3.01276C0.582353 4.07296 0.582353 12.2428 0.582353 12.2428C0.582353 12.2428 0.457645 13.8643 2.26588 13.8643L11.8682 13.8643C11.8682 13.8643 13.1776 13.989 13.1776 12.2428L13.1776 3.01276C13.1776 3.01276 13.1776 2.20203 12.4918 2.01493Z" fill="#E5E5E5"/>
<path d="M1.45529 2.01495H1.14352C1.14352 2.01495 1.14353 1.39129 1.64235 0.954737C1.95411 0.642911 2.39059 0.518173 2.95177 0.518173L11.1824 0.518173C11.1824 0.518173 11.8059 0.518177 12.2423 0.892368C12.4918 1.14183 12.6165 1.51603 12.6165 1.95258H12.3047C12.3047 1.57839 12.18 1.32894 11.9929 1.07948C11.6812 0.767649 11.1823 0.767649 11.12 0.767649L2.88941 0.767649C2.39058 0.767649 2.01647 0.830015 1.76705 1.07948C1.45529 1.51603 1.45529 2.01495 1.45529 2.01495Z" fill="#BDBDBD"/>
<path d="M11.9306 13.989C11.8682 13.989 11.8682 13.989 11.8059 13.989L2.20353 13.989C1.58 13.989 1.14353 13.8019 0.831762 13.4901C0.332939 12.9912 0.395294 12.3051 0.395294 12.2428L0.395294 3.01277C0.395294 2.63858 0.519999 2.38913 0.707058 2.13967C1.08118 1.76548 1.58 1.82784 1.64235 1.82784C2.07882 1.82784 2.39059 1.95258 2.57765 2.20203C2.88941 2.51386 2.82706 2.95042 2.82706 2.95042L2.82706 10.9955L10.8706 10.9955L10.8706 3.13751C10.8706 2.70095 10.9953 2.38913 11.2447 2.13967C11.6188 1.76548 12.18 1.82784 12.2423 1.82784C12.5541 1.82784 12.8659 1.95257 13.0529 2.13967C13.4271 2.51386 13.4271 3.01277 13.4271 3.07514L13.4271 12.3051C13.4271 12.9288 13.24 13.4277 12.8659 13.7395C12.4918 13.989 12.1176 13.989 11.9306 13.989ZM1.64235 2.13967C1.58 2.13967 1.20589 2.13966 0.956475 2.38912C0.83177 2.51385 0.707058 2.76331 0.707058 3.01277L0.707058 12.2428C0.707058 12.2428 0.644709 12.8664 1.08118 13.2406C1.33059 13.4901 1.7047 13.6772 2.26588 13.6772L11.8682 13.6772C11.8682 13.6772 12.3047 13.7395 12.6165 13.4277C12.8659 13.1782 13.0529 12.8041 13.0529 12.2428L13.0529 3.01277C13.0529 3.01277 13.0529 2.57623 12.8035 2.32677C12.6788 2.20204 12.4294 2.13967 12.18 2.13967C12.18 2.13967 11.7435 2.0773 11.4318 2.38912C11.2447 2.57622 11.1823 2.82568 11.1823 3.13751L11.1823 11.3697L2.57765 11.3697L2.57765 3.01277C2.57765 3.01277 2.57764 2.70095 2.39058 2.45149C2.20353 2.2644 1.95412 2.13967 1.64235 2.13967Z" fill="#BDBDBD"/>
<path d="M5.25882 8.50086L5.25882 4.50954H6.88C7.25412 4.50954 7.56588 4.5719 7.75294 4.75899C7.94 4.94608 8.06471 5.19553 8.06471 5.50735C8.06471 5.69445 8.00235 5.88156 7.87765 6.06865C7.75294 6.25574 7.56588 6.31811 7.37882 6.38047V6.44282C7.62823 6.44282 7.87765 6.56755 8.06471 6.75465C8.25177 6.94174 8.31412 7.12884 8.31412 7.44066C8.31412 7.81485 8.18942 8.06432 7.94 8.25141C7.69059 8.4385 7.37882 8.56323 6.94235 8.56323H5.25882V8.50086ZM5.88235 6.19337H6.63059C7.19176 6.19337 7.44118 6.00628 7.44118 5.63209C7.44118 5.445 7.37882 5.32026 7.25412 5.19553C7.12941 5.0708 6.94236 5.00845 6.69294 5.00845H5.88235V6.19337ZM6.75529 8.00194C7.31647 8.00194 7.62824 7.81484 7.62824 7.37829C7.62824 6.94174 7.31647 6.75465 6.75529 6.75465H5.88235L5.88235 8.0643H6.75529V8.00194Z" fill="#333333"/>
</svg>
