<svg width="14" height="17" viewBox="0 0 14 17" fill="none" xmlns="http://www.w3.org/2000/svg">
<path d="M13.52 3.5045C13.4576 3.44213 13.3953 2.56902 12.46 2.50665C12.2729 1.38409 10.9635 1.19701 10.9635 1.19701C10.9635 1.19701 5.72588 1.19701 3.73059 1.19701C2.23412 1.19701 1.92236 2.0701 1.79766 2.56902C0.862361 2.69375 0.737648 3.56686 0.737648 3.56686C0.737648 3.56686 0.737648 11.6743 0.737648 13.9818C0.737648 16.2893 2.73295 16.3517 2.73295 16.3517C2.73295 16.3517 9.65412 16.3517 11.6494 16.3517C13.6447 16.3517 13.4576 14.2313 13.4576 14.2313L13.52 3.5045Z" fill="#E26154"/>
<path d="M11.6494 16.4764H2.73295C2.73295 16.4764 0.488243 16.414 0.488243 13.9195L0.488243 3.44216C0.550596 3.00561 0.924709 2.25723 1.98471 2.25723C2.92 2.25723 3.41883 2.69379 3.41883 3.50453L3.41883 12.1732C3.48118 12.3603 4.16706 13.67 7.0353 13.67C10.1529 13.67 10.9012 12.298 11.0259 12.1732L11.0259 3.5669C11.0259 3.13034 11.3376 2.3196 12.3353 2.3196C13.0212 2.3196 13.52 2.69378 13.7071 3.44216C13.7071 3.44216 13.7071 3.44216 13.7071 3.50453C13.7694 3.75399 13.7694 5.12602 13.7694 14.2936C13.7694 14.2936 13.8318 15.3538 13.2082 16.0398C12.7718 16.2893 12.2729 16.4764 11.6494 16.4764ZM0.987068 3.50453L0.987068 13.9195C0.987068 15.9775 2.6706 16.0398 2.73295 16.0398H11.6494C12.1482 16.0398 12.5223 15.9151 12.7718 15.6033C13.2706 15.042 13.2082 14.1689 13.2082 14.1689C13.2082 10.1152 13.2082 4.06581 13.2082 3.5669V3.50453C13.0835 3.13034 12.8965 2.75616 12.2729 2.75616C11.4623 2.75616 11.4624 3.50453 11.4624 3.50453L11.4624 12.1732C11.4624 12.5474 10.2776 14.1065 7.0353 14.1065C3.60589 14.1065 2.98236 12.3603 2.98236 12.298V12.2356L2.98236 3.50453C2.98236 3.25507 2.98236 2.75616 2.04707 2.75616C1.11177 2.6938 0.987068 3.3798 0.987068 3.50453Z" fill="#C14437"/>
<path d="M1.54823 2.75616C1.54823 2.75616 1.54823 2.07015 2.04706 1.50886C2.42118 1.13467 2.98235 0.885208 3.73058 0.885208L11.0259 0.885208C11.587 1.00994 12.7094 1.50886 12.7094 2.6938H12.2106C12.2106 1.63359 11.0882 1.38412 10.9012 1.32175L3.66824 1.32175C3.04471 1.32175 2.60823 1.44649 2.29647 1.75832C1.92235 2.13251 1.92235 2.63143 1.92235 2.63143L1.54823 2.75616Z" fill="#C14437"/>
<path d="M7.65882 9.42918H6.2247L5.91293 10.3647H5.03999L6.41176 6.37332H7.40941L8.78117 10.3647H7.84588L7.65882 9.42918ZM6.47411 8.74317H7.53411L7.03529 7.18405H6.97293L6.47411 8.74317Z" fill="white"/>
</svg>
