<svg width="14" height="14" viewBox="0 0 14 14" fill="none" xmlns="http://www.w3.org/2000/svg">
<path d="M1.61059 2.01495H1.29883C1.29883 2.01495 1.29883 1.39129 1.79765 0.954737C2.10942 0.642911 2.54588 0.518173 3.10706 0.518173L11.3376 0.518173C11.3376 0.518173 11.9612 0.518177 12.3977 0.892368C12.6471 1.14183 12.7718 1.51603 12.7718 1.95258H12.46C12.46 1.57839 12.3353 1.32894 12.1482 1.07948C11.8365 0.767649 11.3377 0.767649 11.2753 0.767649L3.04471 0.767649C2.54589 0.767649 2.17177 0.830015 1.92236 1.07948C1.61059 1.51603 1.61059 2.01495 1.61059 2.01495Z" fill="#BDBDBD"/>
<path d="M12.0859 13.989C12.0235 13.989 12.0235 13.989 11.9612 13.989L2.35883 13.989C1.7353 13.989 1.29883 13.8019 0.987066 13.4901C0.488243 12.9912 0.550598 12.3052 0.550598 12.2428L0.550598 3.01277C0.550598 2.63858 0.675303 2.38913 0.862362 2.13967C1.23648 1.76548 1.7353 1.82784 1.79766 1.82784C2.23413 1.82784 2.54589 1.95258 2.73295 2.20204C3.04471 2.51386 2.98236 2.95042 2.98236 2.95042L2.98236 10.9955L10.9635 10.9955L10.9635 3.13751C10.9635 2.70095 11.0882 2.38913 11.3376 2.13967C11.7118 1.76548 12.2729 1.82784 12.3353 1.82784C12.6471 1.82784 12.9588 1.95257 13.1459 2.13967C13.52 2.51386 13.52 3.01278 13.52 3.07514L13.52 12.3052C13.52 12.9288 13.3329 13.4277 12.9588 13.7395C12.6471 13.989 12.2729 13.989 12.0859 13.989ZM1.79766 2.13967C1.7353 2.13967 1.36118 2.13966 1.11177 2.38912C0.987064 2.51385 0.862362 2.76331 0.862362 3.01277L0.862362 12.2428C0.862362 12.2428 0.800004 12.8664 1.23647 13.2406C1.48589 13.4901 1.86001 13.6772 2.42119 13.6772L12.0235 13.6772C12.0235 13.6772 12.46 13.7395 12.7718 13.4277C13.0212 13.1783 13.2082 12.8041 13.2082 12.2428L13.2082 3.01277C13.2082 3.01277 13.2082 2.57623 12.9588 2.32677C12.8341 2.20204 12.5847 2.13967 12.3353 2.13967C12.3353 2.13967 11.8988 2.0773 11.5871 2.38912C11.4 2.57622 11.3376 2.82568 11.3376 3.13751L11.3376 11.3697L2.73295 11.3697L2.73295 3.01277C2.73295 3.01277 2.73295 2.70095 2.54589 2.45149C2.42118 2.2644 2.17177 2.13967 1.79766 2.13967Z" fill="#BDBDBD"/>
<path d="M7.72118 7.56543H6.16236L5.78824 8.62563H5.16471L6.59883 4.63426H7.2847L8.71882 8.62563H8.03294L7.72118 7.56543ZM6.34941 7.0665H7.53412L6.97294 5.38265H6.91059L6.34941 7.0665Z" fill="#333333"/>
</svg>
